<svg width="255" height="67" viewBox="0 0 255 67" fill="none" xmlns="http://www.w3.org/2000/svg">
<g clip-path="url(#clip0_85_2169)">
<path d="M239.616 33.0985L254.043 13.4446H242.56L233.211 26.6944L223.789 13.4446H212.38L226.807 33.1721L211.423 53.9301H222.832L233.211 39.6498L243.59 53.9301H255L239.616 33.0985Z" fill="#FFFFFF"/>
<path d="M197.989 36.9998C197.989 42.5206 194.603 46.2747 188.641 46.2747C182.678 46.2747 179.292 42.5206 179.292 36.9998V13.4446H169.502V37.8831C169.502 47.8941 175.759 54.8134 188.641 54.8134C201.522 54.8134 207.779 47.8941 207.779 37.8095V13.4446H197.989V36.9998Z" fill="#FFFFFF"/>
<path d="M97.5626 12.5611C84.6809 12.5611 75.8477 21.4679 75.8477 33.6872C75.8477 45.9065 84.6809 54.8133 97.5626 54.8133C110.444 54.8133 119.351 45.8328 119.351 33.6872C119.351 21.5415 110.371 12.5611 97.5626 12.5611ZM97.5626 46.2745C90.3489 46.2745 85.7114 40.7538 85.7114 33.6872C85.7114 26.6206 90.3489 21.0999 97.5626 21.0999C104.776 21.0999 109.414 26.547 109.414 33.6872C109.414 40.8274 104.776 46.2745 97.5626 46.2745Z" fill="#0272D9"/>
<path d="M66.455 14.7694C61.9427 14.7694 57.931 15.8662 54.6185 17.8095V15.6527H44.7474V53.93H54.6185V35.4906C54.7878 28.5566 59.3811 23.3082 66.455 23.3082C68.4572 23.3082 70.2607 23.7277 71.8212 24.4933C72.8002 21.6004 74.243 18.9799 76.1053 16.7053C73.2566 15.454 70.003 14.7694 66.455 14.7694Z" fill="#0272D9"/>
<path d="M153.528 13.4444H146.241C132.844 13.4444 124.158 21.4679 124.158 33.6872C124.158 45.9065 132.844 53.93 146.241 53.93H163.245V0.334473H153.528V13.4444ZM153.528 45.4648H146.241C138.217 45.4648 134.022 40.0913 134.022 33.6872C134.022 27.2831 137.776 21.9096 146.241 21.9096H153.528V45.4648Z" fill="#0272D9"/>
<path d="M17.0038 13.5843H-0.000127733V67.1798H9.7164V54.0698H17.0038C30.4008 54.0698 39.0868 46.0463 39.0868 33.8271C39.0868 21.6078 30.4008 13.5843 17.0038 13.5843ZM17.0038 45.6047H9.7164V22.0495H17.0038C25.0273 22.0495 29.2231 27.423 29.2231 33.8271C29.2231 40.2311 25.469 45.6047 17.0038 45.6047Z" fill="#0272D9"/>
<path d="M-0.000127733 13.5843L-5.15283 13.5843L-0.000127733 18.737V13.5843Z" fill="#0272D9"/>
<path d="M163.194 53.9226H168.346L163.194 48.7699V53.9226Z" fill="#0272D9"/>
</g>
<defs>
<clipPath id="clip0_85_2169">
<rect width="255" height="66.5509" fill="white" transform="translate(0 0.334473)"/>
</clipPath>
</defs>
</svg>
